<svg
   width="100"
   height="100"
   viewBox="0 0 26.458333 26.458333"
   version="1.1"
   xmlns="http://www.w3.org/2000/svg"
   xmlns:svg="http://www.w3.org/2000/svg">
    <path
       d="m 35.5625,34.517578 c 0,0.210938 -0.1875,0.375 -0.375,0.375 h -2.25 c -0.210938,0 -0.375,-0.164062 -0.375,-0.375 v -1.125 h -4.5 v 3.375 c 0,0.609375 0.515625,1.125 1.125,1.125 h 9.75 c 0.585937,0 1.125,-0.515625 1.125,-1.125 v -3.375 h -4.5 z m 3.375,-4.875 h -1.875 v -1.125 c 0,-0.585937 -0.539063,-1.125 -1.125,-1.125 h -3.75 c -0.609375,0 -1.125,0.539063 -1.125,1.125 v 1.125 h -1.875 c -0.609375,0 -1.125,0.539063 -1.125,1.125 v 1.875 h 12 v -1.875 c 0,-0.585937 -0.539063,-1.125 -1.125,-1.125 z m -3.375,0 h -3 v -0.75 h 3 z"
       id="text3"
       style="font-family:'Font Awesome 5 Free';-inkscape-font-specification:'Font Awesome 5 Free';white-space:pre"
       transform="matrix(1.3394531,0,0,1.3394531,-32.395955,-30.494036)"
       aria-label="" />
</svg>
