<svg
   width="100"
   height="100"
   viewBox="0 0 26.458333 26.458333"
   version="1.1"
   xmlns="http://www.w3.org/2000/svg"
   xmlns:svg="http://www.w3.org/2000/svg">
    <path
       d="m 34.935547,34.373047 -1.007813,-0.5625 c 0.117188,-0.5625 0.117188,-1.101563 0,-1.664063 l 1.007813,-0.5625 c 0.117187,-0.07031 0.164062,-0.210937 0.117187,-0.328125 -0.257812,-0.84375 -0.703125,-1.59375 -1.265625,-2.226562 -0.09375,-0.09375 -0.234375,-0.117188 -0.351562,-0.04687 l -1.007813,0.5625 c -0.421875,-0.351563 -0.890625,-0.632813 -1.40625,-0.820313 v -1.148437 c 0,-0.117188 -0.09375,-0.234375 -0.234375,-0.257813 -0.867187,-0.210937 -1.734375,-0.1875 -2.554687,0 -0.140625,0.02344 -0.210938,0.140625 -0.210938,0.257813 v 1.148437 c -0.539062,0.1875 -1.007812,0.46875 -1.429687,0.84375 l -1.007813,-0.585937 c -0.117187,-0.07031 -0.257812,-0.04687 -0.351562,0.04687 -0.5625,0.632812 -1.007813,1.382812 -1.265625,2.226562 -0.04687,0.117188 0,0.257813 0.117187,0.328125 l 1.007813,0.5625 c -0.09375,0.5625 -0.09375,1.101563 0,1.664063 l -1.007813,0.5625 c -0.117187,0.07031 -0.164062,0.210937 -0.117187,0.328125 0.257812,0.84375 0.703125,1.59375 1.265625,2.226562 0.09375,0.09375 0.234375,0.117188 0.351562,0.04687 l 1.007813,-0.5625 c 0.421875,0.351563 0.890625,0.632813 1.429687,0.820313 v 1.148437 c 0,0.117188 0.09375,0.234375 0.210938,0.28125 0.867187,0.1875 1.734375,0.164063 2.554687,0 0.140625,-0.04687 0.234375,-0.164062 0.234375,-0.28125 v -1.148437 c 0.515625,-0.1875 0.984375,-0.46875 1.40625,-0.820313 l 1.007813,0.5625 c 0.117187,0.07031 0.257812,0.04687 0.351562,-0.04687 0.585938,-0.632812 1.007813,-1.382812 1.289063,-2.226562 0.02344,-0.117188 -0.02344,-0.257813 -0.140625,-0.328125 z m -5.414063,0.46875 c -1.054687,0 -1.875,-0.820313 -1.875,-1.875 0,-1.03125 0.820313,-1.875 1.875,-1.875 1.03125,0 1.875,0.84375 1.875,1.875 0,1.054687 -0.84375,1.875 -1.875,1.875 z"
       id="text4"
       style="font-family:'Font Awesome 5 Free';-inkscape-font-specification:'Font Awesome 5 Free';white-space:pre"
       transform="matrix(1.3394531,0,0,1.3394531,-26.305372,-30.947943)"
       aria-label="" />
</svg>
