<svg
   width="100"
   height="100"
   viewBox="0 0 26.458333 26.458333"
   version="1.1"
   xmlns="http://www.w3.org/2000/svg"
   xmlns:svg="http://www.w3.org/2000/svg">
    <path
       d="m 31.705078,28.513672 -4.3125,3.5625 v 3.820312 c 0,0.210938 0.164063,0.375 0.375,0.375 h 2.625 c 0.1875,0 0.351563,-0.164062 0.351563,-0.375 v -2.25 c 0,-0.1875 0.1875,-0.375 0.375,-0.375 h 1.5 c 0.210937,0 0.375,0.1875 0.375,0.375 v 2.25 c 0,0 0,0 0,0 0,0.210938 0.1875,0.375 0.375,0.375 h 2.648437 c 0.1875,0 0.375,-0.164062 0.375,-0.375 v -3.84375 l -4.335937,-3.539062 c -0.04687,-0.04687 -0.117188,-0.07031 -0.164063,-0.07031 -0.07031,0 -0.140625,0.02344 -0.1875,0.07031 z m 6.820313,2.414062 -1.945313,-1.617187 v -3.234375 c 0,-0.164063 -0.140625,-0.28125 -0.28125,-0.28125 h -1.3125 c -0.164062,0 -0.28125,0.117187 -0.28125,0.28125 v 1.6875 l -2.109375,-1.734375 c -0.1875,-0.140625 -0.445312,-0.234375 -0.703125,-0.234375 -0.28125,0 -0.539062,0.09375 -0.726562,0.234375 l -5.929688,4.898437 c -0.07031,0.04687 -0.117187,0.140625 -0.117187,0.210938 0,0.07031 0.04687,0.140625 0.07031,0.1875 l 0.609375,0.726562 c 0.04687,0.07031 0.117188,0.09375 0.210938,0.09375 0.07031,0 0.140625,-0.02344 0.1875,-0.07031 l 5.507812,-4.523438 c 0.04687,-0.04687 0.117188,-0.07031 0.1875,-0.07031 0.04687,0 0.117188,0.02344 0.164063,0.07031 l 5.507812,4.523438 c 0.04687,0.04687 0.117188,0.07031 0.1875,0.07031 0.09375,0 0.164063,-0.02344 0.210938,-0.09375 l 0.609375,-0.726562 c 0.04687,-0.04687 0.07031,-0.117188 0.07031,-0.1875 0,-0.07031 -0.04687,-0.164063 -0.117187,-0.210938 z"
       id="text1"
       style="font-family:'Font Awesome 5 Free';-inkscape-font-specification:'Font Awesome 5 Free';white-space:pre"
       transform="matrix(1.3394531,0,0,1.3394531,-29.473749,-28.338353)"
       aria-label="" />
</svg>
