<svg
   width="100"
   height="100"
   viewBox="0 0 26.458333 26.458333"
   version="1.1"
   xmlns="http://www.w3.org/2000/svg"
   xmlns:svg="http://www.w3.org/2000/svg">
    <path
       d="m 31.644531,30.025391 c -0.04687,0.04687 -0.04687,0.09375 -0.04687,0.140625 v 2.648437 h -8.25 v -8.25 h 5.648438 c 0.04687,0 0.09375,0 0.140625,-0.04687 l 0.75,-0.75 c 0.117187,-0.117187 0.02344,-0.328125 -0.140625,-0.328125 h -6.398438 c -0.632812,0 -1.125,0.515625 -1.125,1.125 v 8.25 c 0,0.632813 0.492188,1.125 1.125,1.125 h 8.25 c 0.609375,0 1.125,-0.492187 1.125,-1.125 v -3.398437 c 0,-0.164063 -0.210937,-0.257813 -0.328125,-0.140625 z m 3.65625,-4.710938 c 0.539063,-0.539062 0.539063,-1.40625 0,-1.945312 l -1.007812,-1.007813 c -0.539063,-0.539062 -1.40625,-0.539062 -1.945313,0 l -6.140625,6.140625 -0.234375,2.132813 c -0.07031,0.609375 0.445313,1.125 1.054688,1.054687 l 2.132812,-0.234375 z m -2.296875,0.703125 -4.359375,4.359375 -1.546875,0.1875 0.1875,-1.546875 4.359375,-4.359375 z m 1.5,-1.851562 c 0.117188,0.09375 0.117188,0.234375 0.02344,0.351562 l -0.726563,0.726563 -1.359375,-1.382813 0.703125,-0.703125 c 0.09375,-0.117187 0.257813,-0.117187 0.351563,0 z"
       id="text3"
       style="font-family:'Font Awesome 5 Free';-inkscape-font-specification:'Font Awesome 5 Free';white-space:pre"
       transform="matrix(1.3394531,0,0,1.3394531,-25.566575,-24.206193)"
       aria-label="ï„" />
</svg>
