<svg
   width="100"
   height="100"
   viewBox="0 0 26.458333 26.458333"
   version="1.1"
   xmlns="http://www.w3.org/2000/svg"
   xmlns:svg="http://www.w3.org/2000/svg">
    <path
       d="m 26.277344,23.388672 c 2.671875,0 4.875,2.203125 4.875,4.875 0,2.695312 -2.203125,4.875 -4.875,4.875 -2.695313,0 -4.875,-2.179688 -4.875,-4.875 0,-2.671875 2.179687,-4.875 4.875,-4.875 z m 0,-0.9375 c -3.210938,0 -5.8125,2.625 -5.8125,5.8125 0,3.210937 2.601562,5.8125 5.8125,5.8125 3.1875,0 5.8125,-2.601563 5.8125,-5.8125 0,-3.1875 -2.625,-5.8125 -5.8125,-5.8125 z m 0,1.3125 c -2.507813,0 -4.5,2.015625 -4.5,4.5 0,2.507812 1.992187,4.5 4.5,4.5 2.484375,0 4.5,-1.992188 4.5,-4.5 0,-2.484375 -2.015625,-4.5 -4.5,-4.5 z m 0,1.03125 c 0.445312,0 0.84375,0.398437 0.84375,0.84375 0,0.46875 -0.398438,0.84375 -0.84375,0.84375 -0.46875,0 -0.84375,-0.375 -0.84375,-0.84375 0,-0.445313 0.375,-0.84375 0.84375,-0.84375 z m 2.742187,2.320312 c -0.65625,0.140625 -1.289062,0.28125 -1.921875,0.351563 0.02344,2.367187 0.28125,2.882812 0.585938,3.65625 0.09375,0.210937 -0.02344,0.46875 -0.234375,0.539062 -0.210938,0.09375 -0.46875,-0.02344 -0.539063,-0.234375 -0.210937,-0.515625 -0.398437,-0.960937 -0.539062,-1.851562 h -0.210938 c -0.140625,0.890625 -0.328125,1.335937 -0.539062,1.851562 -0.07031,0.210938 -0.328125,0.328125 -0.539063,0.234375 -0.210937,-0.07031 -0.328125,-0.328125 -0.234375,-0.539062 0.304688,-0.773438 0.5625,-1.289063 0.585938,-3.65625 -0.632813,-0.07031 -1.265625,-0.210938 -1.921875,-0.351563 -0.210938,-0.07031 -0.328125,-0.257812 -0.28125,-0.46875 0.04687,-0.1875 0.257812,-0.328125 0.445312,-0.28125 2.273438,0.539063 2.90625,0.539063 5.179688,0 0.1875,-0.04687 0.398437,0.09375 0.445312,0.28125 0.04687,0.210938 -0.07031,0.398438 -0.28125,0.46875 z"
       id="text5"
       style="font-family:'Font Awesome 5 Free';-inkscape-font-specification:'Font Awesome 5 Free';white-space:pre"
       transform="matrix(2.0091797,0,0,2.0091797,-39.566738,-43.557627)"
       aria-label="" />
</svg>
