<svg
   width="100"
   height="100"
   viewBox="0 0 26.458333 26.458333"
   version="1.1"
   xmlns="http://www.w3.org/2000/svg"
   xmlns:svg="http://www.w3.org/2000/svg">
    <path
       d="m 31.048828,36.623047 c 0,-0.234375 -0.02344,-0.421875 -0.28125,-0.421875 -0.117187,0 -0.234375,0.04687 -0.328125,0.09375 -0.632812,0.351562 -0.914062,1.265625 -0.914062,1.945312 0,0.46875 0.164062,1.078125 0.726562,1.078125 0.117188,0 0.28125,0.02344 0.328125,-0.117187 0.117188,-0.65625 0.257813,-1.3125 0.398438,-1.96875 0.04687,-0.1875 0.07031,-0.398438 0.07031,-0.609375 z m 4.59375,-1.617188 c 0,-0.609375 -0.515625,-1.125 -1.125,-1.125 h -8.25 c -0.632812,0 -1.125,0.515625 -1.125,1.125 v 8.25 c 0,0.632813 0.492188,1.125 1.125,1.125 h 8.25 c 0.609375,0 1.125,-0.492187 1.125,-1.125 z m -1.5,4.382813 c 0,0.04687 -0.07031,0.09375 -0.117187,0.09375 -0.398438,-0.07031 -0.585938,-0.117188 -0.84375,-0.117188 -0.539063,0 -0.914063,0.140625 -1.382813,0.398438 -0.117187,0.04687 -0.07031,0.09375 -0.28125,0.984375 -0.257812,0.984375 -1.078125,2.132812 -2.203125,2.132812 -0.773437,0 -1.265625,-0.515625 -1.265625,-1.265625 0,-0.421875 0.28125,-1.195312 0.773438,-1.195312 0.1875,0 0.867187,0.234375 0.867187,0.398437 0,0.04687 -0.65625,0.328125 -0.65625,0.890625 0,0.5625 1.078125,0.515625 1.3125,-1.382812 0,-0.07031 0.02344,-0.04687 -0.164062,-0.04687 -1.265625,0 -2.015625,-0.703125 -2.015625,-1.992188 0,-1.242187 0.84375,-2.882812 2.53125,-2.882812 1.03125,0 1.570312,0.421875 1.570312,1.453125 0,0.703125 -0.234375,1.359375 -0.328125,2.0625 v 0 c 0.46875,-0.257813 0.820313,-0.492188 1.359375,-0.492188 0.07031,0 0.1875,0.02344 0.234375,0.04687 0.117188,0.04687 0.609375,0.796875 0.609375,0.914063 z"
       style="font-family:'Font Awesome 5 Free';-inkscape-font-specification:'Font Awesome 5 Free';white-space:pre"
       transform="matrix(2.1166666,0,0,2.1166666,-51.10179,-69.597818)"
       aria-label="" />
</svg>
