<svg
   width="100mm"
   height="100mm"
   viewBox="0 0 100 100"
   version="1.1"
   id="svg1"
   xmlns="http://www.w3.org/2000/svg"
   xmlns:svg="http://www.w3.org/2000/svg">
    <path
       d="m 82.628906,130.88281 c 0.140625,0 0.28125,-0.11719 0.28125,-0.28125 v -0.9375 c 0,-0.14062 -0.140625,-0.28125 -0.28125,-0.28125 h -0.9375 c -0.164062,0 -0.28125,0.14063 -0.28125,0.28125 v 0.9375 c 0,0.16406 0.117188,0.28125 0.28125,0.28125 z m 2.53125,-0.28125 v -0.9375 c 0,-0.14062 -0.140625,-0.28125 -0.28125,-0.28125 h -0.9375 c -0.164062,0 -0.28125,0.14063 -0.28125,0.28125 v 0.9375 c 0,0.16406 0.117188,0.28125 0.28125,0.28125 h 0.9375 c 0.140625,0 0.28125,-0.11719 0.28125,-0.28125 z m 2.25,0 v -0.9375 c 0,-0.14062 -0.140625,-0.28125 -0.28125,-0.28125 h -0.9375 c -0.164062,0 -0.28125,0.14063 -0.28125,0.28125 v 0.9375 c 0,0.16406 0.117188,0.28125 0.28125,0.28125 h 0.9375 c 0.140625,0 0.28125,-0.11719 0.28125,-0.28125 z m -2.25,2.25 v -0.9375 c 0,-0.14062 -0.140625,-0.28125 -0.28125,-0.28125 h -0.9375 c -0.164062,0 -0.28125,0.14063 -0.28125,0.28125 v 0.9375 c 0,0.16406 0.117188,0.28125 0.28125,0.28125 h 0.9375 c 0.140625,0 0.28125,-0.11719 0.28125,-0.28125 z m -2.25,0 v -0.9375 c 0,-0.14062 -0.140625,-0.28125 -0.28125,-0.28125 h -0.9375 c -0.164062,0 -0.28125,0.14063 -0.28125,0.28125 v 0.9375 c 0,0.16406 0.117188,0.28125 0.28125,0.28125 h 0.9375 c 0.140625,0 0.28125,-0.11719 0.28125,-0.28125 z m 4.5,0 v -0.9375 c 0,-0.14062 -0.140625,-0.28125 -0.28125,-0.28125 h -0.9375 c -0.164062,0 -0.28125,0.14063 -0.28125,0.28125 v 0.9375 c 0,0.16406 0.117188,0.28125 0.28125,0.28125 h 0.9375 c 0.140625,0 0.28125,-0.11719 0.28125,-0.28125 z m 2.25,-6.09375 c 0,-0.60937 -0.515625,-1.125 -1.125,-1.125 h -1.125 v -1.21875 c 0,-0.14062 -0.140625,-0.28125 -0.28125,-0.28125 h -0.9375 c -0.164062,0 -0.28125,0.14063 -0.28125,0.28125 v 1.21875 h -3 v -1.21875 c 0,-0.14062 -0.140625,-0.28125 -0.28125,-0.28125 h -0.9375 c -0.164062,0 -0.28125,0.14063 -0.28125,0.28125 v 1.21875 h -1.125 c -0.632812,0 -1.125,0.51563 -1.125,1.125 v 8.25 c 0,0.63281 0.492188,1.125 1.125,1.125 h 8.25 c 0.609375,0 1.125,-0.49219 1.125,-1.125 z m -1.125,8.10938 c 0,0.0937 -0.07031,0.14062 -0.140625,0.14062 h -7.96875 c -0.09375,0 -0.140625,-0.0469 -0.140625,-0.14062 v -6.98438 h 8.25 z"
       id="text3"
       style="font-family:'Font Awesome 5 Free';-inkscape-font-specification:'Font Awesome 5 Free';white-space:pre"
       transform="matrix(4.2333332,0,0,4.2333332,-307.33632,-500.89556)"
       aria-label="ï³" />
</svg>
