<svg
   width="100mm"
   height="100mm"
   viewBox="0 0 100 100"
   version="1.1"
   id="svg1"
   xmlns="http://www.w3.org/2000/svg"
   xmlns:svg="http://www.w3.org/2000/svg">
    <path
       d="m 93.636719,99.03125 v 10.5 h 9.000001 v -10.5 h -3.000001 q 0,-0.310547 -0.117188,-0.580078 -0.117187,-0.275391 -0.322265,-0.480469 -0.205079,-0.205078 -0.480469,-0.322266 -0.269531,-0.117187 -0.580078,-0.117187 -0.310547,0 -0.585938,0.117187 -0.269531,0.117188 -0.474609,0.322266 -0.205078,0.205078 -0.322266,0.480469 -0.117187,0.269531 -0.117187,0.580078 z m 6.750001,1.5 h -4.500001 v -0.75 h 1.5 v -0.75 q 0,-0.158203 0.05859,-0.292969 0.05859,-0.134765 0.158204,-0.234375 0.105468,-0.105469 0.240234,-0.164062 0.134766,-0.05859 0.292969,-0.05859 0.158203,0 0.292968,0.05859 0.134766,0.05859 0.234375,0.164062 0.105469,0.09961 0.164063,0.234375 0.05859,0.134766 0.05859,0.292969 v 0.75 h 1.500001 z m -6.000001,-0.75 h 0.75 v 1.5 h 6.000001 v -1.5 h 0.75 v 9 h -7.500001 z m 5.25,3 h -4.5 v 0.75 h 4.5 z m 0,2.25 h -4.5 v 0.75 h 4.5 z m 0,2.25 h -4.5 v 0.75 h 4.5 z m 1.500001,-4.5 h -0.75 v 0.75 h 0.75 z m 0,2.25 h -0.75 v 0.75 h 0.75 z m 0,2.25 h -0.75 v 0.75 h 0.75 z"
       id="text6"
       style="font-family:'Font Awesome 5 Free';-inkscape-font-specification:'Font Awesome 5 Free';white-space:pre"
       transform="matrix(4.2333332,0,0,4.2333332,-365.44543,-388.28228)"
       aria-label="" />
</svg>
