<?xml version="1.0" encoding="UTF-8" standalone="no"?>
<!-- Created with Inkscape (http://www.inkscape.org/) -->

<svg
   width="100mm"
   height="100mm"
   viewBox="0 0 100 100"
   version="1.1"
   id="svg1"
   xmlns="http://www.w3.org/2000/svg"
   xmlns:svg="http://www.w3.org/2000/svg">
  <defs
     id="defs1">
    <rect
       x="52.55728"
       y="112.90082"
       width="196.60316"
       height="156.37413"
       id="rect8" />
    <rect
       x="92.137454"
       y="96.030586"
       width="109.65655"
       height="107.06113"
       id="rect7" />
    <rect
       x="53.854991"
       y="101.87028"
       width="243.32074"
       height="160.91612"
       id="rect6" />
    <rect
       x="77.862637"
       y="107.70998"
       width="267.32839"
       height="87.595467"
       id="rect5" />
    <rect
       x="79.160348"
       y="122.63365"
       width="110.95426"
       height="53.854991"
       id="rect4" />
    <rect
       x="74.618361"
       y="120.03823"
       width="154.42756"
       height="121.9848"
       id="rect3" />
    <rect
       x="115.49625"
       y="136.90847"
       width="131.06877"
       height="86.946611"
       id="rect2" />
    <rect
       x="105.11456"
       y="145.99244"
       width="216.71767"
       height="136.90847"
       id="rect1" />
  </defs>
  <g
     id="layer1">
    <path
       d="m 63.431641,115.90039 h -9.75 c -0.632813,0 -1.125,0.51563 -1.125,1.125 v 6.75 c 0,0.63281 0.492187,1.125 1.125,1.125 h 9.75 c 0.609375,0 1.125,-0.49219 1.125,-1.125 v -6.75 c 0,-0.60937 -0.515625,-1.125 -1.125,-1.125 z m 0,1.125 v 0.96094 c -0.539063,0.44531 -1.382813,1.10156 -3.164063,2.50781 -0.398437,0.30469 -1.171875,1.05469 -1.710937,1.03125 -0.5625,0.0234 -1.335938,-0.72656 -1.734375,-1.03125 -1.78125,-1.40625 -2.625,-2.0625 -3.140625,-2.50781 v -0.96094 z m -9.75,6.75 v -4.33594 c 0.515625,0.42188 1.289062,1.03125 2.4375,1.94532 0.515625,0.39843 1.429687,1.28906 2.4375,1.26562 0.984375,0.0234 1.875,-0.86719 2.414062,-1.26562 1.148438,-0.91407 1.921875,-1.52344 2.460938,-1.94532 v 4.33594 z"
       id="text7"
       style="font-family:'Font Awesome 5 Free';-inkscape-font-specification:'Font Awesome 5 Free';white-space:pre"
       transform="matrix(4.2333332,0,0,4.2333332,-197.88977,-459.69498)"
       aria-label="" />
  </g>
</svg>
