<svg
   width="100mm"
   height="100mm"
   viewBox="0 0 100 100"
   version="1.1"
   id="svg1"
   xmlns="http://www.w3.org/2000/svg"
   xmlns:svg="http://www.w3.org/2000/svg">
    <path
       d="m 121.30859,138.5957 c -3.21093,0 -5.8125,2.60157 -5.8125,5.8125 0,3.21094 2.60157,5.8125 5.8125,5.8125 3.21094,0 5.8125,-2.60156 5.8125,-5.8125 0,-3.21093 -2.60156,-5.8125 -5.8125,-5.8125 z m 0,10.5 c -2.60156,0 -4.6875,-2.08593 -4.6875,-4.6875 0,-2.57812 2.08594,-4.6875 4.6875,-4.6875 2.57813,0 4.6875,2.10938 4.6875,4.6875 0,2.60157 -2.10937,4.6875 -4.6875,4.6875 z m -1.875,-5.0625 c 0.39844,0 0.75,-0.32812 0.75,-0.75 0,-0.39843 -0.35156,-0.75 -0.75,-0.75 -0.42187,0 -0.75,0.35157 -0.75,0.75 0,0.42188 0.32813,0.75 0.75,0.75 z m 3.75,0 c 0.39844,0 0.75,-0.32812 0.75,-0.75 0,-0.39843 -0.35156,-0.75 -0.75,-0.75 -0.42187,0 -0.75,0.35157 -0.75,0.75 0,0.42188 0.32813,0.75 0.75,0.75 z m 0.0937,1.71094 c -0.49218,0.58594 -1.21875,0.91406 -1.96875,0.91406 -0.77343,0 -1.5,-0.32812 -1.96875,-0.91406 -0.21093,-0.23437 -0.5625,-0.25781 -0.79687,-0.0703 -0.23438,0.1875 -0.28125,0.5625 -0.0703,0.79687 0.70312,0.84375 1.73437,1.3125 2.83593,1.3125 1.07813,0 2.10938,-0.46875 2.8125,-1.3125 0.21094,-0.23437 0.1875,-0.60937 -0.0703,-0.79687 -0.23437,-0.1875 -0.58594,-0.16406 -0.77344,0.0703 z"
       id="text1"
       style="font-family:'Font Awesome 5 Free';-inkscape-font-specification:'Font Awesome 5 Free';white-space:pre"
       transform="matrix(4.2333332,0,0,4.2333332,-463.5397,-561.32804)"
       aria-label="" />
</svg>
