<svg
   width="100mm"
   height="100mm"
   viewBox="0 0 100 100"
   version="1.1"
   id="svg1"
   xmlns="http://www.w3.org/2000/svg"
   xmlns:svg="http://www.w3.org/2000/svg">
    <path
       d="m 112.24023,148.61719 c 0,-0.60938 -0.51562,-1.125 -1.125,-1.125 -0.63281,0 -1.125,0.51562 -1.125,1.125 0,0.63281 0.49219,1.125 1.125,1.125 0.60938,0 1.125,-0.49219 1.125,-1.125 z m -1.125,8.625 c -0.63281,0 -1.125,0.51562 -1.125,1.125 0,0.63281 0.49219,1.125 1.125,1.125 0.60938,0 1.125,-0.49219 1.125,-1.125 0,-0.60938 -0.51562,-1.125 -1.125,-1.125 z m 4.875,-4.875 c -0.63281,0 -1.125,0.51562 -1.125,1.125 0,0.63281 0.49219,1.125 1.125,1.125 0.60938,0 1.125,-0.49219 1.125,-1.125 0,-0.60938 -0.51562,-1.125 -1.125,-1.125 z m -8.625,1.125 c 0,-0.60938 -0.51562,-1.125 -1.125,-1.125 -0.63281,0 -1.125,0.51562 -1.125,1.125 0,0.63281 0.49219,1.125 1.125,1.125 0.60938,0 1.125,-0.49219 1.125,-1.125 z m 0.28125,2.34375 c -0.60937,0 -1.125,0.49218 -1.125,1.125 0,0.60937 0.51563,1.125 1.125,1.125 0.63282,0 1.125,-0.51563 1.125,-1.125 0,-0.63282 -0.49218,-1.125 -1.125,-1.125 z m 6.91407,0 c -0.63282,0 -1.125,0.49218 -1.125,1.125 0,0.60937 0.49218,1.125 1.125,1.125 0.60937,0 1.125,-0.51563 1.125,-1.125 0,-0.63282 -0.51563,-1.125 -1.125,-1.125 z m -6.91407,-6.91407 c -0.60937,0 -1.125,0.51563 -1.125,1.125 0,0.63282 0.51563,1.125 1.125,1.125 0.63282,0 1.125,-0.49218 1.125,-1.125 0,-0.60937 -0.49218,-1.125 -1.125,-1.125 z"
       id="text1"
       style="font-family:'Font Awesome 5 Free';-inkscape-font-specification:'Font Awesome 5 Free';white-space:pre"
       transform="matrix(4.2333332,0,0,4.2333332,-420.38782,-599.78358)"
       aria-label="ï„" />
</svg>
