<?xml version="1.0" encoding="UTF-8" standalone="no"?>
<!-- Created with Inkscape (http://www.inkscape.org/) -->

<svg
   width="100mm"
   height="100mm"
   viewBox="0 0 100 100"
   version="1.1"
   id="svg1"
   xmlns="http://www.w3.org/2000/svg"
   xmlns:svg="http://www.w3.org/2000/svg">
  <defs
     id="defs1">
    <rect
       x="215.41996"
       y="138.20618"
       width="39.580174"
       height="90.190888"
       id="rect9" />
    <rect
       x="52.55728"
       y="112.90082"
       width="196.60316"
       height="156.37413"
       id="rect8" />
    <rect
       x="92.137454"
       y="96.030586"
       width="109.65655"
       height="107.06113"
       id="rect7" />
    <rect
       x="53.854991"
       y="101.87028"
       width="243.32074"
       height="160.91612"
       id="rect6" />
    <rect
       x="77.862637"
       y="107.70998"
       width="267.32839"
       height="87.595467"
       id="rect5" />
    <rect
       x="79.160348"
       y="122.63365"
       width="110.95426"
       height="53.854991"
       id="rect4" />
    <rect
       x="74.618361"
       y="120.03823"
       width="154.42756"
       height="121.9848"
       id="rect3" />
    <rect
       x="115.49625"
       y="136.90847"
       width="131.06877"
       height="86.946611"
       id="rect2" />
    <rect
       x="105.11456"
       y="145.99244"
       width="216.71767"
       height="136.90847"
       id="rect1" />
  </defs>
  <g
     id="layer1">
    <path
       d="m 219.91992,148.70703 c 0,-0.53906 -0.30469,-1.03125 -0.75,-1.28906 v -0.96094 c 0,-0.39844 -0.35156,-0.75 -0.75,-0.75 -0.42187,0 -0.75,0.35156 -0.75,0.75 v 0.96094 c -0.46875,0.25781 -0.75,0.75 -0.75,1.28906 0,0.84375 0.65625,1.5 1.5,1.5 0.82031,0 1.5,-0.65625 1.5,-1.5 z m 0.75,-1.96875 v -4.78125 c 0,-1.24219 -1.00781,-2.25 -2.25,-2.25 -1.26562,0 -2.25,1.00781 -2.25,2.25 v 4.78125 c -0.46875,0.51563 -0.75,1.21875 -0.75,1.96875 -0.0234,1.64063 1.3125,3 2.97656,3 0,0 0,0 0.0234,0 1.64063,0 3,-1.33594 3,-3 0,-0.75 -0.30469,-1.45312 -0.75,-1.96875 z m -0.375,1.96875 c 0,1.05469 -0.84375,1.875 -1.875,1.875 h -0.0234 c -1.03125,0 -1.875,-0.84375 -1.85156,-1.875 0,-0.79687 0.44531,-1.21875 0.75,-1.54687 v -5.20313 c 0,-0.60937 0.49219,-1.125 1.125,-1.125 0.60938,0 1.125,0.51563 1.125,1.125 v 5.20313 c 0.28125,0.32812 0.75,0.75 0.75,1.54687 z"
       id="text8"
       style="font-family:'Font Awesome 5 Free';-inkscape-font-specification:'Font Awesome 5 Free';white-space:pre"
       transform="matrix(4.2333332,0,0,4.2333332,-874.64367,-566.82642)"
       aria-label="" />
  </g>
</svg>
