<?xml version="1.0" encoding="UTF-8" standalone="no"?>
<!-- Created with Inkscape (http://www.inkscape.org/) -->

<svg
   width="100mm"
   height="100mm"
   viewBox="0 0 100 100"
   version="1.1"
   id="svg1"
   xmlns="http://www.w3.org/2000/svg"
   xmlns:svg="http://www.w3.org/2000/svg">
  <defs
     id="defs1">
    <rect
       x="60.992399"
       y="93.435165"
       width="212.17569"
       height="116.1451"
       id="rect1" />
  </defs>
  <g
     id="layer1">
    <path
       d="m 71.914062,101.66211 c 0.210938,-0.35156 0.328125,-0.72656 0.328125,-1.17188 0,-1.031246 -0.890625,-1.992183 -2.015625,-1.992183 h -0.867187 c 0.117187,-0.304688 0.210937,-0.65625 0.210937,-1.101563 0,-1.710937 -0.890625,-2.460937 -2.226562,-2.460937 -1.453125,0 -1.359375,2.226562 -1.6875,2.554687 -0.539063,0.539063 -1.171875,1.570313 -1.617188,1.945313 h -2.296875 c -0.421875,0 -0.75,0.351562 -0.75,0.750003 v 5.625 c 0,0.42187 0.328125,0.75 0.75,0.75 h 1.5 c 0.328125,0 0.632813,-0.23438 0.703125,-0.53907 1.054688,0.0234 1.78125,0.91407 4.171875,0.91407 0.1875,0 0.375,0 0.539063,0 1.804687,0 2.601562,-0.91407 2.625,-2.22657 0.328125,-0.42187 0.492187,-1.00781 0.421875,-1.57031 0.234375,-0.42187 0.304687,-0.9375 0.210937,-1.47656 z m -1.453125,1.26562 c 0.304688,0.49219 0.02344,1.14844 -0.328125,1.35938 0.1875,1.125 -0.421875,1.52344 -1.242187,1.52344 H 68 c -1.664063,0 -2.765625,-0.86719 -4.007813,-0.86719 v -4.38281 h 0.234375 c 0.679688,0 1.59375,-1.640628 2.226563,-2.273441 0.65625,-0.65625 0.445312,-1.78125 0.890625,-2.226562 1.101562,0 1.101562,0.773437 1.101562,1.335937 0,0.914063 -0.65625,1.335938 -0.65625,2.226563 h 2.4375 c 0.492188,0 0.867188,0.445313 0.890625,0.890623 0,0.42188 -0.304687,0.86719 -0.539062,0.86719 0.328125,0.35156 0.398437,1.07812 -0.117188,1.54687 z m -7.40625,2.13282 c 0,0.32812 -0.257812,0.5625 -0.5625,0.5625 -0.328125,0 -0.5625,-0.23438 -0.5625,-0.5625 0,-0.30469 0.234375,-0.5625 0.5625,-0.5625 0.304688,0 0.5625,0.25781 0.5625,0.5625 z"
       id="text1"
       style="font-family:'Font Awesome 5 Free';-inkscape-font-specification:'Font Awesome 5 Free';white-space:pre"
       transform="matrix(4.2333332,0,0,4.2333332,-232.01275,-377.2938)"
       aria-label="" />
  </g>
</svg>
